<svg id="visual" viewBox="0 0 900 600" width="900" height="600" xmlns="http://www.w3.org/2000/svg" xmlns:xlink="http://www.w3.org/1999/xlink" version="1.1"><rect x="0" y="0" width="900" height="600" fill="#ffffff"></rect><path d="M0 298L21.5 313.5C43 329 86 360 128.8 362.8C171.7 365.7 214.3 340.3 257.2 355C300 369.7 343 424.3 385.8 437.7C428.7 451 471.3 423 514.2 401C557 379 600 363 642.8 371.8C685.7 380.7 728.3 414.3 771.2 416.7C814 419 857 390 878.5 375.5L900 361L900 601L878.5 601C857 601 814 601 771.2 601C728.3 601 685.7 601 642.8 601C600 601 557 601 514.2 601C471.3 601 428.7 601 385.8 601C343 601 300 601 257.2 601C214.3 601 171.7 601 128.8 601C86 601 43 601 21.5 601L0 601Z" fill="#09ff97" stroke-linecap="round" stroke-linejoin="miter"></path></svg>